<svg width="75" height="52" xmlns="http://www.w3.org/2000/svg" xmlns:xlink="http://www.w3.org/1999/xlink"><title>Group 5</title><desc>Created using Figma</desc><use xlink:href="#a" transform="translate(.97 10.336)" fill="url(#b)"/><use xlink:href="#c" transform="translate(15.6 24.9)" fill="#88FFFC"/><use xlink:href="#c" transform="translate(11.9 27.1)" fill="#88FFFC"/><use xlink:href="#c" transform="translate(8.2 29.2)" fill="#88FFFC"/><use xlink:href="#d" transform="translate(18.1 .6)" fill="url(#e)"/><defs><linearGradient id="b" x2="1" gradientUnits="userSpaceOnUse" gradientTransform="matrix(17.719 -28.5393 48.6436 10.3958 25.227 33.428)"><stop offset="0" stop-color="#08FFFF"/><stop offset="1" stop-color="#50E8F0" stop-opacity=".01"/></linearGradient><linearGradient id="e" x2="1" gradientUnits="userSpaceOnUse" gradientTransform="matrix(14.3736 -22.9075 39.4596 8.34432 20.465 26.832)"><stop offset="0" stop-color="#08FFFF"/><stop offset="1" stop-color="#50E8F0" stop-opacity=".079"/></linearGradient><path id="a" d="M35.725 40.564l33.4-19.5c.7-.4.7-1.4 0-1.7l-33.5-19.1c-.6-.4-1.4-.3-2 0l-33.1 19.1c-.7.4-.7 1.3 0 1.7l33.1 19.5c.7.4 1.5.4 2.1 0z"/><path id="c" d="M1.5 1.8c.828 0 1.5-.403 1.5-.9S2.328 0 1.5 0 0 .403 0 .9s.672.9 1.5.9z"/><path id="d" fill-rule="evenodd" d="M45.7 3.4l4.9 2.8c.4.3.4.6-.1.7l-3.7 2.2c-.3.2-.3.5-.1.7 1.2 1.1 2 2.3 2.5 3.5l.3.3c.106.053.213.106.334.144a1.2 1.2 0 0 0 .366.056h5.3c.3 0 .5.1.7.2.2.1.3.2.3.4v4c0 .3-.5.6-1 .6h-5.3c-.5 0-.9.1-1 .4-.5 1.2-1.3 2.4-2.4 3.5-.3.2-.2.5.1.7l3.6 2.2c.4.2.4.6 0 .8l-4.8 2.8c-.4.2-1 .2-1.4 0l-3.7-2.2c-.193-.128-.466-.174-.744-.164a2.21 2.21 0 0 0-.456.064c-1.9.6-3.9 1.1-6 1.4-.5.1-.8.3-.8.6v3.1c0 .3-.5.6-1 .6h-6.8c-.3 0-.5-.1-.7-.2-.2-.1-.3-.2-.3-.4v-3.1c0-.2-.1-.3-.3-.4-.1-.1-.3-.2-.5-.2-2.1-.3-4.1-.7-6-1.4-.4-.1-.9-.1-1.2.1l-3.7 2.2c-.4.2-1 .2-1.4 0l-4.8-2.8c-.4-.2-.4-.6 0-.8l3.8-2.1c.3-.2.3-.5.1-.7-1.2-1.1-2-2.3-2.5-3.5l-.3-.3c-.127-.063-.254-.127-.407-.165A1.206 1.206 0 0 0 6.3 19H1c-.3 0-.5-.1-.7-.2-.2-.1-.3-.2-.3-.4v-4c0-.3.4-.6 1-.6h5.3c.5 0 .9-.1 1-.4.5-1.2 1.3-2.4 2.4-3.5.3-.2.2-.5-.1-.7L5.8 7c-.4-.2-.4-.6 0-.8l4.8-2.8c.4-.2 1-.2 1.4 0l3.8 2.2c.3.2.8.2 1.2.1 1.9-.6 3.9-1.1 6-1.4.5-.1.8-.3.8-.6V.6c0-.3.4-.6 1-.6h6.8c.3 0 .5.1.7.2.07.035.128.07.174.11A.35.35 0 0 1 32.6.6v3.1c0 .2.1.3.3.4.1.1.3.2.5.2 2.1.3 4.1.7 6 1.4.4.1.9.1 1.2-.1l3.7-2.2c.4-.2 1-.2 1.4 0zm-24.3 9.1c-3.8 2.2-3.8 5.7 0 7.9 3.8 2.1 9.9 2.1 13.7 0 3.8-2.2 3.8-5.7 0-7.9s-9.9-2.2-13.7 0z"/></defs></svg>