<svg width="56" height="56" xmlns="http://www.w3.org/2000/svg" xmlns:xlink="http://www.w3.org/1999/xlink"><title>Group 4</title><desc>Created using Figma</desc><use xlink:href="#a" transform="translate(1 3)" fill="url(#b)"/><g transform="translate(-8734 -527)"><use xlink:href="#c" transform="translate(8734 527)" fill="#D8D8D8" opacity=".01"/><mask id="d"><use xlink:href="#c" transform="translate(8734 527)" fill="#FFF"/></mask><g mask="url(#d)"><use xlink:href="#e" transform="translate(8741 526)" fill="url(#f)"/></g></g><defs><linearGradient id="b" x2="1" gradientUnits="userSpaceOnUse" gradientTransform="rotate(127.4 14.306 16.023) scale(41.3515)"><stop offset="0" stop-color="#02356E" stop-opacity=".037"/><stop offset="0" stop-color="#022F6C" stop-opacity=".01"/><stop offset=".348" stop-color="#0486A8" stop-opacity=".372"/><stop offset=".659" stop-color="#06C7D7" stop-opacity=".672"/><stop offset=".884" stop-color="#08F0F4" stop-opacity=".888"/><stop offset="1" stop-color="#08FFFF"/></linearGradient><linearGradient id="f" x2="1" gradientUnits="userSpaceOnUse" gradientTransform="matrix(-30.6223 40.0247 -42.4752 -28.8556 41.05 3.65)"><stop offset="0" stop-color="#022F6C" stop-opacity=".01"/><stop offset=".091" stop-color="#02356E" stop-opacity=".037"/><stop offset=".348" stop-color="#0486A8" stop-opacity=".372"/><stop offset=".659" stop-color="#06C7D7" stop-opacity=".672"/><stop offset=".884" stop-color="#08F0F4" stop-opacity=".888"/><stop offset="1" stop-color="#08FFFF"/></linearGradient><path id="a" d="M26.5 53C41.136 53 53 41.136 53 26.5S41.136 0 26.5 0 0 11.864 0 26.5 11.864 53 26.5 53z"/><path id="c" fill-rule="evenodd" d="M28 56c15.464 0 28-12.536 28-28S43.464 0 28 0 0 12.536 0 28s12.536 28 28 28z"/><path id="e" fill-rule="evenodd" d="M.034 10.399c-.444 1.352 3.421 7.744 11.22 9.897-.45-.643-1.133-1.343-1.845-2.071-2.124-2.172-4.494-4.597-1.652-6.522 3.795-2.57 3.498.966 3.498.966S16.6 4.425 23.347.932C30.094-2.562 3.735 4.472.034 10.399zM20.854 49s-6.414-3.589-4.465-10.696c.953-3.477-1.072-6.004-2.952-8.35-1.963-2.45-3.769-4.704-1.867-7.638 3.725-5.745 15.473.804 15.784 7.785.177 4.013-2.899 6.87-5.37 9.163-1.827 1.696-3.322 3.084-2.924 4.404A82.766 82.766 0 0 0 20.854 49zm10.123-30.964c-6.19-5.75 5.766-13.876 5.766-13.876S52 13.278 52 15.19c0 1.912-2.991 7.24-8.206 9.64-4.134 1.903-5.88.133-9.51-3.548a101.669 101.669 0 0 0-3.307-3.246z"/></defs></svg>