<svg width="71" height="51" xmlns="http://www.w3.org/2000/svg" xmlns:xlink="http://www.w3.org/1999/xlink"><title>Group</title><desc>Created using Figma</desc><use xlink:href="#a" fill="url(#b)"/><use xlink:href="#c" transform="translate(4 11)" fill="url(#d)" opacity=".564"/><use xlink:href="#e" transform="translate(30 3)" fill="url(#f)"/><defs><linearGradient id="b" x2="1" gradientUnits="userSpaceOnUse" gradientTransform="matrix(17.5519 -35.6215 48.1938 12.9732 25.219 41.72)"><stop offset="0" stop-color="#08FFFF"/><stop offset="1" stop-color="#50E8F0" stop-opacity=".01"/></linearGradient><linearGradient id="d" x2="1" gradientUnits="userSpaceOnUse" gradientTransform="matrix(-13.5891 27.5591 -46.1614 -8.11292 40.219 6.73)"><stop offset="0" stop-color="#08FFFF"/><stop offset="1" stop-color="#50E8F0" stop-opacity=".01"/></linearGradient><linearGradient id="f" x2="1" gradientUnits="userSpaceOnUse" gradientTransform="matrix(19.5205 -12.9432 21.3182 11.8517 2.494 16.26)"><stop offset="0" stop-color="#08FFFF"/><stop offset="1" stop-color="#50E8F0" stop-opacity=".01"/></linearGradient><path id="a" d="M2.419 30.484C.922 29.557 0 28.05 0 26.311c0-2.434 1.152-4.636 2.419-6.259 1.382-1.854 3.11-3.245 5.068-4.404L34.673 0 69 20.632 41.815 36.279c-1.959 1.16-3.686 2.55-5.069 4.405-1.267 1.739-2.419 3.825-2.419 6.26 0 2.085.576 3.245 1.383 3.824.115.116.23.232.46.232L2.42 30.484z"/><path id="c" d="M67 21.404L34.78 40 0 19.181 32.802 0 67 21.404z"/><path id="e" fill-rule="evenodd" d="M27.479 7.535c.695-.476.695-1.549 0-1.906L18.438.269c-.695-.358-1.39-.358-2.086 0L2.56 8.488c-1.16.714-3.71 2.858-1.97 5.36 1.693 2.393 4.738 2.8 6.49 3.034.167.022.322.043.463.064 1.623.238 4.868-.358 6.027-1.072.464-.341 3.73-2.278 7.136-4.297a736.35 736.35 0 0 0 6.773-4.043zm-14.373 3.693c0 1.184-1.764 2.145-3.94 2.145-2.177 0-3.94-.96-3.94-2.145 0-1.184 1.763-2.144 3.94-2.144 2.176 0 3.94.96 3.94 2.144z"/></defs></svg>