<svg xmlns="http://www.w3.org/2000/svg" width="1486" height="481"><g fill="none" fill-rule="evenodd" stroke-linecap="round" stroke-linejoin="round" stroke-width=".4" opacity=".4"><path stroke="#02F1E4" d="M.523 475.249l25.116-18.822H13.081z"/><path stroke="#02F1E4" d="M20.092 464.479v-12.234l3.768 8.365zm-4.604 1.359l-8.686-3.137 8.686-1.046zm4.604-13.593l-4.604 9.41 4.604 2.824zm-4.604-8.366l8.372-17.462v23.736z"/><path stroke="#02F1E4" d="M15.488 435.828l19.255-7.32-14.651 18.927zm8.372-9.411l10.883 2.091-3.349-8.156z"/><path stroke="#02F1E4" d="M25.115 419.307l9.628 9.201 4.5-9.201z"/><path stroke="#02F1E4" d="M32.232 410.418l-5.756 28.86 12.767-26.455zm-2.931-9.724l26.686-7.32-21.244-4.914z"/><path stroke="#03A9F4" d="M39.243 393.374v19.449l16.744-19.449z"/><path stroke="#02F1E4" d="M42.696 378.735l13.291 14.639v-9.62z"/><path stroke="#03A9F4" d="M39.243 393.374l13.604-20.076 3.14 10.456z"/><path stroke="#02F1E4" d="M42.696 370.684l16.953 10.143-1.255-15.058z"/><path stroke="#03A9F4" d="M52.847 373.298l-3.558-15.162 19.255 10.979z"/><path stroke="#02F1E4" d="M59.649 380.827l5.756-20.077 6.279 2.614zm-1.255-15.058l-2.407-14.221 9.418 9.202zm1.255-26.246l37.36 2.719-28.465-18.404z"/><path stroke="#03A9F4" d="M65.405 360.75l15.488-45.277 16.116 17.567z"/><path stroke="#02F1E4" d="M130.81 367.756l-15.697-32.102 51.591-18.508z"/><path stroke="#02F1E4" d="M133.217 351.548l28.255 31.788 23.441-22.586zm0-22.377l51.696 31.579 11.511-22.691z"/><path stroke="#02F1E4" d="M180.727 394.629l-17.79-37.748 34.848 18.822zm-50.231 8.47l30.976-19.763 11.93 10.038zm.314-35.343l30.662 15.58-30.976 9.934zm12.244 32.938l8.895 7.11 3.244-4.705zm19.883 12.129l1.883-5.019 7.116 5.019z"/><path stroke="#02F1E4" d="M151.949 407.804h12.871l-6.488 2.614zm21.453 1.255l7.011 3.764 6.593-2.509zm-8.582-1.255l-3.348-24.468-6.279 19.763zm20.093-102.787l11.511 33.042 27.209-1.673zm0 55.733l32.441 25.305 14.65-18.299z"/><path stroke="#02F1E4" d="M223.633 336.386l-17.163 27.606 23.023-7.111zm-38.72-31.369l-18.209 12.129 13.709 19.24zm-59.336-31.37l41.127 43.499 16.744-21.749zm74.405 43.499l-3.558-21.749 21.558-14.117z"/><path stroke="#02F1E4" d="M219.447 323.838l-34.534-58.242 33.069-9.098z"/><path stroke="#02F1E4" d="M207.203 323.107l26.162-23.841 9.418 23.841zm-105.695-27.71l31.709-30.847-7.64 27.501z"/><path stroke="#02F1E4" d="M113.752 305.017l-3.872-23.737 7.535 5.229zm10.465 0h-22.709v4.81zm-35.58 4.81l22.604 1.359-9.733 10.352z"/><path stroke="#02F1E4" d="M124.217 332.413l-22.709-31.579 31.709 14.639z"/><path stroke="#03A9F4" d="M139.6 326.871l-14.023-34.82 29.616 12.966z"/><path stroke="#02F1E4" d="M183.448 295.397l-6.279-42.558 27.104 18.717zm-50.231-30.847l21.976 40.467 21.976-52.178z"/><path stroke="#02F1E4" d="M192.552 263.504l-12.139-40.571-28.464 36.702zm3.872-43.812l40.813 33.147-32.964 18.717z"/><path stroke="#02F1E4" d="M145.984 254.303l12.348 3.555-16.743 22.168z"/><path stroke="#03A9F4" d="M158.332 278.98l-14.546-11.816 7.326 32.102z"/><path stroke="#02F1E4" d="M121.078 283.163l20.092 7.005-16.953 14.849zm12.139 32.31l21.976-10.456H127.67z"/><path stroke="#03A9F4" d="M29.301 477.34l5.442-48.832 89.474 48.832z"/><path stroke="#02F1E4" d="M105.171 393.374l-33.487 87.103 95.753-18.822zm-33.487-30.01l135.519 117.113 50.231-67.654zm-15.697-11.816H75.87l-15.174 9.202zm9.941-15.162l4.919 8.575 5.86-6.902z"/><path stroke="#03A9F4" d="M83.718 329.171l-2.511 13.28 15.802-6.065z"/><path stroke="#02F1E4" d="M101.508 326.871l11.302 2.3-1.569-6.064zm0-21.854l-9.104 13.593 18.837-7.424zm61.533-63.576l14.128 11.398-21.976-3.033zm7.116-11.92l10.675 8.888h-14.651zm7.012-2.51l3.663 11.398 9.836-8.888z"/><path stroke="#03A9F4" d="M177.169 252.839l-7.012-23.318 10.256-6.588z"/><path stroke="#02F1E4" d="M196.424 219.692l-16.011 3.241 17.79 8.993z"/><path stroke="#03A9F4" d="M194.017 241.441l-4.709-20.286 3.244-9.097zm2.407-21.749l89.265-62.844-48.452 95.991z"/><path stroke="#02F1E4" d="M223.633 179.852l19.15 17.776-19.15 22.064zm-6.803 14.639l-32.859 12.339 32.859-24.887z"/><path stroke="#02F1E4" d="M216.83 216.555l-14.65-22.168 27.313 5.437zm25.953-29.488l-10.779-12.443h14.965zm14.651-10.352l-14.651-19.867-5.546 9.934zm-14.651 20.913l-13.29 2.196 9.941 16.731z"/><path stroke="#03A9F4" d="M211.703 208.921l-1.884 21.645-13.395-10.874zm-13.918-2.091l25.848.732-21.453-13.175zm38.405-15.371l-19.36-9.516 12.663 17.881z"/><path stroke="#02F1E4" d="M263.085 201.602l-20.302-14.535 20.302-7.215zm-12.244 24.259l-27.208-6.169-4.186 20.285z"/><path stroke="#03A9F4" d="M285.689 194.387l34.534 20.285 16.011-20.285z"/><path stroke="#02F1E4" d="M296.677 212.058l18.313-31.265 5.233 33.879zm51.277 2.614l-32.964-33.879 27.209-40.153z"/><path stroke="#02F1E4" d="M331.525 174.624l37.15 19.763v-30.22zm-45.836-26.141h19.883l-19.883 8.365zm5.232-15.685l14.651 15.685 2.93-7.843z"/><path stroke="#02F1E4" d="M290.921 148.483l14.651-23.005 7.325 15.162zm40.604-7.843l-11.302-15.162h16.011zm-13.919-35.029l22.5-16.731-3.872 8.366z"/><path stroke="#03A9F4" d="M331.525 109.793l24.801-4.182-6.279-8.365z"/><path stroke="#02F1E4" d="M359.465 88.88l11.721-13.07h15.488z"/><path stroke="#02F1E4" d="M343.873 95.154l10.36-12.757 16.953.837z"/><path stroke="#02F1E4" d="M347.954 112.408l2.093-19.972 31.395 4.81z"/><path stroke="#03A9F4" d="M371.186 109.793l-21.139-12.547-13.813 28.232z"/><path stroke="#02F1E4" d="M331.525 109.793l-13.919-4.182-12.034 19.867z"/><path stroke="#02F1E4" d="M295.63 115.545l24.593 9.933H295.63z"/><path stroke="#03A9F4" d="M290.921 132.798l-22.499 7.842 22.499 7.843z"/><path stroke="#02F1E4" d="M331.525 109.793l4.709 15.685 17.476 3.66zM170.157 229.521l-24.173 4.391 17.057 7.529zm-36.94 35.029v-16.94l12.767 6.693z"/><path stroke="#02F1E4" d="M121.078 274.17l26.789-51.237-1.883 22.691zm-26.895 19.867l5.756-17.253 21.139-2.614zm-5.546 15.79l.418-8.993h12.453z"/><path stroke="#02F1E4" d="M109.88 281.28l-9.941-4.496 13.709-12.234zM453.125 58.87v32.102l21.662 6.274z"/><path stroke="#02F1E4" d="M458.044 82.397l16.743-12.652 19.151 6.274z"/><path stroke="#02F1E4" d="M463.904 88.88l25.848-30.01 13.604 10.875z"/><path stroke="#02F1E4" d="M481.38 87.103l-9.732-35.866 34.848 7.633z"/><path stroke="#02F1E4" d="M463.904 66.922l19.779-24.782 22.813 5.96z"/><path stroke="#02F1E4" d="M518.74 61.693l-22.709-23.736 33.801-2.405z"/><path stroke="#02F1E4" d="M536.844 61.693L515.6 44.231l10.57-18.403z"/><path stroke="#02F1E4" d="M515.6 53.328l35.58-20.913-32.44 29.278z"/><path stroke="#03A9F4" d="M515.6 44.231l35.58-21.227-17.79 4.183z"/><path stroke="#02F1E4" d="M551.18 32.415l28.569 3.137-2.825-19.135z"/><path stroke="#02F1E4" d="M536.844 61.693l14.336-29.278 11.512 16.208zm-83.719-2.823l-40.498 6.274 16.429-13.907zm0-16.73v16.73l18.523-7.633z"/><path stroke="#02F1E4" d="M463.904 66.922l-10.779-8.052 15.698-23.318zm19.779-24.782l-14.86-6.588 2.825 15.685zm12.348-4.183l2.825-9.724 9.733 4.182zm30.139-12.129l-2.617-4.601-7.953 7.006zm7.22 1.359l5.233-10.77 12.557 6.587z"/><path stroke="#02F1E4" d="M557.773 13.28l-13.081 6.378 20.721 3.869zm-49.184 19.135l4.395 3.137 2.616-7.319zm-24.906 9.725l1.569-10.248 10.779 6.065zm-14.86-6.588l7.43-7.319 8.999 3.659z"/><path stroke="#03A9F4" d="M453.125 42.14l-15.697 4.914 5.547 7.529z"/><path stroke="#02F1E4" d="M412.627 65.144l2.093-13.907 11.511 7.006zm16.429-13.907l3.035-4.183 5.337 11.816zm-47.614 46.009l18.627 5.228-18.627 16.939zm5.232 84.697l66.451-90.971 67.812 131.961z"/><path stroke="#02F1E4" d="M431.568 220.214l148.181-110.421 25.116 102.265z"/><path stroke="#03A9F4" d="M518.74 61.693l14.65 82.607 46.359-34.507zM101.508 321.538l9.733-27.501-22.186 6.797z"/><path stroke="#02F1E4" d="M83.718 329.171l4.919-19.344 5.546 15.057zm-10.464-8.469l12.557.104-9.523 8.052zm119.298-108.644l1.465-26.768 8.163 9.097zm16.744-35.343l7.534 5.228-14.65 3.347zM487.868 40.78l5.233-11.92 5.755-.627zm20.721-8.365l1.569-7.633 2.826 2.405z"/><path stroke="#03A9F4" d="M503.356 25.828l3.14 22.272 6.488-12.548zm11.512-2.824l8.685-1.777-10.569 5.96z"/><path stroke="#02F1E4" d="M526.17 25.828l2.197-6.17 5.023 7.529zm12.453-9.411l3.139 12.129-9.732-8.888zM515.6 28.233l4.605 8.051.732-7.006z"/><path stroke="#03A9F4" d="M471.648 51.237l6.697-17.567 5.338 8.47z"/><path stroke="#02F1E4" d="M546.367 14.43l-4.605 14.116 9.418 3.869zm19.046 9.097l14.336 12.025 12.558-7.006zm5.651-14.325l3.976-2.092 3.872 2.092z"/><path stroke="#02F1E4" d="M574.935 11.502l6.175-4.392 1.569 2.196zm9.523 1.778l5.442-7.215 7.116 4.601z"/><path stroke="#02F1E4" d="M590.737 13.28l-8.058-3.974-1.883 3.974zm-14.65 0l-7.116-3.66-3.558 4.81zm.837 3.137l-11.511-1.987 1.046 3.973zm-19.151-3.137l3.14-3.66 4.5 4.81z"/><path stroke="#03A9F4" d="M658.863.837l-79.114 108.956 88.428 31.684z"/><path stroke="#02F1E4" d="M592.307 28.546l20.302-22.481L728.873 33.67zm-242.26 138.236l3.663-25.305 27.732 2.823zm18.628-2.615l12.767-19.867 5.232 37.643zm34.952-19.867h-22.185l11.092 18.194zm49.498-53.328l-60.591-32.729-11.092 39.003zm151.74 121.086l7.011-37.434 84.346 69.327z"/><path stroke="#02F1E4" d="M623.91 247.61c-1.674-2.927 26.581-106.133 26.581-106.133l57.557 81.456-84.137 24.677z"/><path stroke="#02F1E4" d="M654.05 209.235c-.838-.627 54.102-76.228 54.102-76.228l33.174 86.685-87.277-10.457z"/><path stroke="#02F1E4" d="M708.152 222.933l-39.975-81.456 39.975-8.47zm33.069-3.241l75.765-62.844 20.197 95.991z"/><path stroke="#02F1E4" d="M750.011 136.98l66.975 19.868-13.709 84.279zm-115.845-25.618l16.43 30.115 17.581-8.47zm-3.453-24.259l11.092-15.894 12.244 11.188zm26.476-20.181l-3.14 15.475 18.523 4.706zm10.988 66.085l4.395-45.904 27.836 10.143zm28.045-50.61l4.186 14.849 28.465 28.232z"/><path stroke="#02F1E4" d="M747.186 77.065l-46.778 20.181 12.139-21.436zm-18.313 48.413l18.313-48.413-23.337 20.181z"/><path stroke="#02F1E4" d="M741.221 66.922l56.928 52.491-48.138-7.005zm-33.069-18.299l33.069 18.299 16.43-34.507zm24.697-42.558l17.162 5.96L766.023.837zM576.924 16.417l18.522.836-11.72 9.725zm20.092-5.751l7.43-6.065 8.163 1.464z"/><path stroke="#03A9F4" d="M595.446 17.253l1.57-6.587s8.372 10.56 7.849 10.665c-.628 0-9.419-4.078-9.419-4.078z"/><path stroke="#02F1E4" d="M628.097 6.065l-7.954-2.405-8.476 3.45zm32.44 12.338L722.07.837l10.779 5.228-51.591 63.157zm126.415 7.529L865.438 7.11l38.72 39.944z"/><path stroke="#02F1E4" d="M805.056.837l51.173 37.643-72.73 30.742zm68.754 66.085l40.289-50.714 41.859 53.014z"/><path stroke="#02F1E4" d="M925.611 82.397l62.265-47.368 17.267 62.217z"/><path stroke="#03A9F4" d="M955.958 29.801l49.185 67.445 32.964-44.441z"/><path stroke="#02F1E4" d="M921.425 66.922l34.533-37.121 9.419 111.676zm83.718 30.324l80.056-24.05 8.371 83.652z"/><path stroke="#03A9F4" d="M1129.151 97.246l-35.581 59.602 87.381-4.706zm-91.044 22.167l66.975-39.421 24.069 17.254z"/><path stroke="#03A9F4" d="M1049.409 59.079l13.814 108.748 41.859-87.835z"/><path stroke="#02F1E4" d="M798.149 119.413l30.662-18.194-45.312-31.997zm18.837 7.634l23.337-7.634 33.487 11.294zm44.789 9.933l-12.034 19.868 48.661 69.013z"/><path stroke="#02F1E4" d="M860.729 156.848l13.081-26.141 41.022 34.297z"/><path stroke="#02F1E4" d="M874.019 184.558l40.813-19.554-16.43 60.857z"/><path stroke="#02F1E4" d="M943.401 219.692l-69.382-35.134 34.743 68.281z"/><path stroke="#02F1E4" d="M940.785 202.334l-25.953-37.33-6.07 87.835zm-123.799-45.486l20.197-4.706 36.627 70.791z"/><path stroke="#02F1E4" d="M808.51 208.921l36.836-40.885-3.977 44.022zm8.476 22.168l43.743-33.461v43.499zm-38.615-85.743l-31.185 49.25 31.185 31.265zm-70.219-12.339l41.859 3.973-8.79 44.441z"/><path stroke="#02F1E4" d="M700.408 195.432l32.441-35.97 14.337 35.134z"/><path stroke="#02F1E4" d="M741.221 219.692l-59.335-50.296 14.336 74.555zM708.152 56.674v-8.051l8.686 12.861z"/><path stroke="#03A9F4" d="M723.849 43.499l-7.011 17.985 12.035-5.019z"/><path stroke="#02F1E4" d="M741.221 66.922l-8.372-26.351 27.104 16.94zm20.092-21.436l3.14-15.685 22.499 17.253z"/><path stroke="#03A9F4" d="M757.651 32.415l29.301-6.483v21.122z"/><path stroke="#02F1E4" d="M794.277 63.576l16.849-33.252 8.686 40.885zm61.952-25.096l-9.628 25.096 20.093-8.575z"/><path stroke="#03A9F4" d="M840.323 45.172l-8.058-11.084-12.453 37.121z"/><path stroke="#02F1E4" d="M846.601 63.576v37.643l-26.789-30.01zm27.209 5.646l-27.209 31.997 38.72 5.438z"/><path stroke="#02F1E4" d="M846.601 63.576l27.209 3.346-2.302 37.016zm-58.288-9.829l15.069-23.946 13.081 25.409z"/><path stroke="#02F1E4" d="M821.172 32.415l-21.871 21.332 27.417-3.033zm-26.895 31.161l-5.964-9.829 7.011 31.16zm34.534 37.643l13.395-3.973-19.883-13.489z"/><path stroke="#02F1E4" d="M814.998 103.938l21.139-28.128-31.081-3.66zm-7.953 10.247l-26.372-16.939-5.755 10.665zm-23.546-44.963l-19.046 4.496-17.267 3.347 36.313 10.979zm-47.196 36.493h12.348l-4.605 4.392z"/><path stroke="#02F1E4" d="M754.511 121.818l-10.465-11.711 4.605-4.392z"/><path stroke="#02F1E4" d="M765.29 121.818l-16.639-16.103 5.86 16.103zm3.663-29.382l8.267-21.75-11.197 12.025zm8.267 7.737V70.686l13.813 20.286zm17.057 6.484l10.779-22.168 4.919 23.422zm-145.669 4.705l-7.012 13.698 15.279-.837z"/><path stroke="#02F1E4" d="M647.352 135.517l13.185-17.881 6.698 10.456z"/><path stroke="#03A9F4" d="M654.049 119.832l2.093-8.47 4.395 6.274z"/><path stroke="#02F1E4" d="M657.293 138.235c.733-.418 13.605-26.873 13.605-26.873l10.569 6.901-24.174 19.972zm15.279-51.132l15.593 24.259 1.255-17.044z"/><path stroke="#02F1E4" d="M673.305 112.93l-11.93-16.73 28.045-1.882zm-77.335 99.128l-3.454-19.135 24.069 13.802z"/><path stroke="#02F1E4" d="M609.26 235.481l-3.558-54.06 46.464 4.182z"/><path stroke="#02F1E4" d="M640.445 219.378l-28.569-44.754 14.232-12.548z"/><path stroke="#02F1E4" d="M652.166 185.603l-26.058-23.527 24.488-20.599z"/><path stroke="#02F1E4" d="M664.723 183.826c-.837-.837-30.557-28.442-30.557-28.442l41.231.941-10.674 27.5z"/><path stroke="#03A9F4" d="M677.386 211.013l-25.22-25.41 48.242 9.829z"/><path stroke="#02F1E4" d="M696.222 176.402l-6.802-40.885 43.429 23.945z"/><path stroke="#03A9F4" d="M751.581 174.624l-21.453-39.526 39.557 14.953z"/><path stroke="#02F1E4" d="M778.371 145.346l24.069 32.624-24.069 14.535z"/><path stroke="#02F1E4" d="M796.37 152.142l1.779 53.642 26.267-13.279z"/><path stroke="#03A9F4" d="M748.651 105.715l87.486-29.905-61.219 32.101z"/><path stroke="#03A9F4" d="M747.186 77.065l124.322 26.873-35.371-28.128z"/><path stroke="#02F1E4" d="M935.552 115.022h-31.394l-1.047-13.803zm-21.976 4.391l9.209 24.364-21.557-12.129z"/><path stroke="#02F1E4" d="M921.425 115.022l17.79 17.985 7.011-5.96z"/><path stroke="#03A9F4" d="M933.878 154.861l14.755-2.719 1.047 9.934z"/><path stroke="#02F1E4" d="M939.215 133.007l9.418 19.135 13.081-4.287zm-16.43 10.77l11.093 11.084-19.046 10.143zm-30.662 32.102l9.105-44.231 16.534 14.952z"/><path stroke="#03A9F4" d="M848.485 189.054l44.999-36.912 15.278 40.363z"/><path stroke="#02F1E4" d="M856.229 215.927l74.3-28.337-14.337 28.337z"/><path stroke="#03A9F4" d="M833.206 165.004l17.791 13.907-26.581 13.594zm-195.691 7.319l2.93-21.226 16.848 13.907z"/><path stroke="#02F1E4" d="M668.177 141.477l-7.64 14.221 21.349-3.556z"/><path stroke="#02F1E4" d="M681.886 169.396l-.314-30.743 22.499 15.372z"/><path stroke="#03A9F4" d="M704.071 165.004l-14.651-29.487 30.871 29.487z"/><path stroke="#02F1E4" d="M730.128 135.098l-7.953 18.508 19.046-3.346zm200.401 52.492l-30.976-15.267 28.464 29.383zm-7.744 31.788l18-17.044 12.557 22.272zm0-45.277l46.778 18.404-19.883-30.429zm66.975 21.331l-28.046-47.577 7.849 44.65z"/><path stroke="#02F1E4" d="M980.551 199.72l15.488-27.397 6.697 33.461zm-95.23-93.063l-11.511 24.05 27.418.941z"/><path stroke="#02F1E4" d="M903.111 101.219l-15.278 29.906 25.743-11.712zm43.115 25.828l58.917-29.801-30.871 54.896z"/><path stroke="#02F1E4" d="M1038.107 119.413l-42.068 52.91-21.767-20.181zm-72.73 22.064l-15.697 20.599 35.894 15.162z"/><path stroke="#03A9F4" d="M957.528 183.198l35.58-26.036-3.348 38.27z"/><path stroke="#02F1E4" d="M865.438 7.11l25.325 6.274-19.255 1.464zm35.266 9.098l20.721-1.36 7.011 4.81zm4.186 11.502l26.79 10.77-12.348 2.091zm48.243 15.371l31.394 9.62-11.511 6.378zm36.627 15.998l19.569-16.416 12.244 20.913z"/><path stroke="#02F1E4" d="M999.597 64.83l28.882-17.776 5.651 24.155z"/><path stroke="#02F1E4" d="M987.876 35.029l33.697 28.547-60.591 26.246zm17.267 62.217l28.987-26.037 15.279 32.729zm44.266-38.167l-8.476 26.56 22.813-12.443zm37.569 31.579l-9.733-24.573 21.035 5.124z"/><path stroke="#02F1E4" d="M1052.548 83.757l63.208 1.882 5.023 41.408z"/><path stroke="#02F1E4" d="M1092.629 106.134l38.824 10.038-13.604 20.286zm51.905 10.038v-12.234l-13.081 12.234zm5.337 18.194l-18.418-18.194-2.302 22.9z"/><path stroke="#02F1E4" d="M1102.361 85.639l15.174 14.116-6.488 27.919z"/><path stroke="#03A9F4" d="M1129.151 97.246h8.162l-5.86 18.926z"/><path stroke="#02F1E4" d="M1074.734 97.873V63.576l-10.988 9.62zm-33.801-12.234l-4.919-22.063 27.732 9.62zm22.813 24.468l-29.616-11.293 25.43-3.66zm-37.987-24.468l-20.616-14.953-19.569 31.892zM578.807 53.747l7.43-5.647 3.768 8.052z"/><path stroke="#02F1E4" d="M584.458 56.152l6.279-6.484 3.454 6.484z"/><path stroke="#02F1E4" d="M590.737 52.91l4.709-5.856 4.71 7.529z"/><path stroke="#03A9F4" d="M594.191 56.152l5.965-7.529-15.698 2.614z"/><path stroke="#02F1E4" d="M604.865 51.237l3.662-4.183 1.779 3.765z"/><path stroke="#02F1E4" d="M600.156 46.009l2.302 7.738 7.848-2.928zm42.173 38.166l5.86-8.993v5.961z"/><path stroke="#03A9F4" d="M654.782 84.175c-.523-.523-6.593-8.993-6.593-8.993l9.104.628-2.511 8.365z"/><path stroke="#02F1E4" d="M659.491 80.411l-9.104-10.561h15.069zm12.244 0l-7.326 4.601 10.361-.837zM158.332 278.98l15.07-17.044 10.046 33.461zm8.372 38.166l-4.081-29.592 33.801 50.505zm18.209-12.129l-1.465-9.62h12.976zm-50.44 95.677l-3.977-7.424 18.627 1.359zm-3.977-21.645l9.314 9.411 1.151-9.725zm-2.826-20.39l21.453 4.705-8.162 15.371z"/><path stroke="#03A9F4" d="M161.472 370.788l-6.907 15.267-11.511-12.757zm23.441 12.548l-11.511 10.038-10.779-14.952zm-32.65-19.972l-16.535-21.122-1.255 27.396z"/><path stroke="#02F1E4" d="M127.67 326.871l30.348-3.033-8.058 30.743zm0 18.09l-12.557-9.307 6.279-12.547zm78.8 19.031l-26.057-27.606 49.08 20.495z"/><path stroke="#03A9F4" d="M173.715 353.953l6.698-17.567 17.372 39.317z"/><path stroke="#02F1E4" d="M79.532 330.949l4.186-15.476 8.686 3.137zm14.651-21.645l2.826-13.907h4.499zm17.058-15.267l3.872-12.757 5.965 1.883z"/><path stroke="#03A9F4" d="M117.415 274.588l2.407-11.084 13.395 3.66zm19.674-3.032l-3.872-15.058 21.976-6.692z"/><path stroke="#02F1E4" d="M777.22 95.991l24.906-20.809 2.93 9.307z"/><path stroke="#02F1E4" d="M822.323 83.757l-28.046-20.181 20.721 40.362z"/><path stroke="#03A9F4" d="M846.601 63.576l18.837-36.494 31.604 30.22z"/><path stroke="#03A9F4" d="M833.206 29.801l21.244-13.593 14.651 24.363z"/><path stroke="#02F1E4" d="M819.812 19.658l10.255-8.679 6.07 8.679z"/><path stroke="#02F1E4" d="M826.718 24.573l13.605-9.725 10.883 13.489zm27.732-8.365l1.779-9.098 12.872 15.894zm17.058-1.36l8.581-8.365 5.232 19.449z"/><path stroke="#03A9F4" d="M873.81 25.932l26.894-9.724 4.186 11.502z"/><path stroke="#02F1E4" d="M904.89 36.493l9.733-10.561 20.929 9.097z"/><path stroke="#02F1E4" d="M919.332 40.571l9.104-20.913 27.522 10.143z"/><path stroke="#02F1E4" d="M924.355 47.054l13.29-15.789 15.488 11.816z"/><path stroke="#03A9F4" d="M928.436 19.658l12.349 25.096 26.789-4.183z"/><path stroke="#02F1E4" d="M903.111 101.219l-3.558-31.997 26.058 13.175z"/><path stroke="#03A9F4" d="M935.552 115.022l25.43-25.2 44.161 49.25z"/><path stroke="#02F1E4" d="M993.108 157.162l-7.534-54.584 55.359 45.277z"/><path stroke="#02F1E4" d="M1013.201 189.054l5.546-36.912 22.186 40.363z"/><path stroke="#02F1E4" d="M1021.573 211.013l19.36-63.158 28.359 70.895zm-41.022 14.848V199.72l28.778 29.801z"/><path stroke="#02F1E4" d="M961.714 231.089l7.849-38.584 10.988 33.356zm107.578-12.339l-6.069-50.923 68.23 22.9z"/><path stroke="#02F1E4" d="M1102.361 237.886l-8.791-81.038 32.965 54.897z"/><path stroke="#03A9F4" d="M1040.933 147.855l50.649-11.397-42.592-12.444zm79.427 28.024l8.791-36.807 33.487 53.433z"/><path stroke="#02F1E4" d="M1077.245 202.334l32.65-54.479 10.465 28.024zm-14.022-34.507l-22.29 46.323 42.696-25.096zm68.23 76.124l46.882-54.897 15.697 48.832z"/><path stroke="#03A9F4" d="M1141.499 208.921l-39.138-15.684 21.557 44.649zm21.139-16.416l31.394 45.381-13.081-85.744z"/><path stroke="#02F1E4" d="M1129.151 139.072l2.302 51.655 10.046 18.194z"/><path stroke="#02F1E4" d="M1149.871 134.366l-86.648 33.461.523-57.72z"/><path stroke="#02F1E4" d="M1040.933 187.59l22.813-43.813-58.603-4.705zm108.938-53.224l31.08 2.092v15.684z"/><path stroke="#02F1E4" d="M1162.638 153.815l2.721-29.173 32.859 23.213zm25.116 20.809l10.464-26.769 15.174 26.769z"/><path stroke="#02F1E4" d="M1180.951 152.142l32.441 2.196v20.286zm6.803 38.794l31.394-15.057 5.232 17.358zm44.998-15.057l-2.616 53.642-5.756-36.284z"/><path stroke="#02F1E4" d="M1162.638 192.505l-12.767-58.139 74.509 31.37z"/><path stroke="#03A9F4" d="M1200.521 202.334l65.195-12.339v34.611z"/><path stroke="#03A9F4" d="M1247.403 208.921l-2.616-30.219 29.824 21.018z"/><path stroke="#02F1E4" d="M1210.253 237.886l49.498-24.468 3.349 55.315z"/><path stroke="#02F1E4" d="M1200.521 202.334l5.546 54.374 24.069-27.187zm51.591 31.369l49.708-14.325 5.755 49.355zm-3.139 38.689l37.673-9.933 8.895 27.187z"/><path stroke="#02F1E4" d="M1265.716 299.579l-2.616-30.846 32.441 20.913z"/><path stroke="#02F1E4" d="M1279.32 312.65l7.326-50.191 23.022 37.12z"/><path stroke="#02F1E4" d="M1301.296 328.335l-21.976-15.685 16.221-23.004zm19.884-7.843l-11.512-20.913-8.372 28.756zm-30.872 7.843l-10.988-15.685-7.011 30.324z"/><path stroke="#02F1E4" d="M1269.379 316.31l20.929 12.025-24.592-28.756zm41.859-7.32l-33.278-13.489 36.417 4.078z"/><path stroke="#02F1E4" d="M1321.18 320.492l-48.871-61.17 28.987 18.821zm-13.605-51.759l32.964-6.274-14.127-12.548z"/><path stroke="#03A9F4" d="M1295.541 249.911l25.639-8.784 12.034 37.539z"/><path stroke="#02F1E4" d="M1279.32 237.886l.524-30.638 31.394 23.841z"/><path stroke="#03A9F4" d="M1287.692 247.297l13.604-33.147-19.987 29.801z"/><path stroke="#02F1E4" d="M1347.342 287.554l4.185-37.643-30.347 28.755z"/><path stroke="#02F1E4" d="M1354.667 299.579l-18.313-30.846 26.161 3.659z"/><path stroke="#03A9F4" d="M1365.655 299.579l22.499 2.614-11.197 10.457z"/><path stroke="#02F1E4" d="M1382.399 331.995l-9.419-47.787 20.93 29.697zm-19.884-13.594l3.14-30.847 7.325 15.476z"/><path stroke="#02F1E4" d="M1340.539 289.646l42.906 5.855-25.115-33.042zm-103.81 185.603l35.58-132.275 83.195 134.366z"/><path stroke="#02F1E4" d="M1362.515 318.401l-61.219 156.848 125.369-30.533z"/><path stroke="#02F1E4" d="M1442.78 383.441l-69.8 61.275 112.287 30.533z"/><path stroke="#03A9F4" d="M1274.611 195.014l-8.895 23.736 22.186.628z"/><path stroke="#02F1E4" d="M1272.309 222.619l15.593-15.371-3.872 22.273z"/><path stroke="#03A9F4" d="M1274.611 236.004l36.627-11.398v19.345z"/><path stroke="#02F1E4" d="M1294.494 244.055l19.883-6.169v15.476zm15.174 12.653l20.407-9.411-.733 19.344z"/><path stroke="#03A9F4" d="M1324.005 268.733l-2.825-27.606 19.359 13.803z"/><path stroke="#02F1E4" d="M1299.831 233.494l4.605-20.076 16.744 17.253zm-189.936-85.639l52.743-37.748v82.398zm68.44 41.199l8.791-63.576 37.254 67.759z"/><path stroke="#02F1E4" d="M1134.278 167.827l75.975-31.369-9.732 65.876z"/><path stroke="#03A9F4" d="M1206.067 256.708l50.44-91.704 30.139 97.455z"/><path stroke="#02F1E4" d="M1194.032 289.855l105.799-91.599 14.546 101.323z"/><path stroke="#02F1E4" d="M1263.1 320.492c-2.407-1.254-64.882-90.971-64.882-90.971l-48.347 49.145 113.229 41.826z"/><path stroke="#03A9F4" d="M1198.218 313.905l138.136-91.286-12.349 76.96z"/><path stroke="#02F1E4" d="M1319.819 331.995l-5.442-124.747 40.29 92.331z"/><path stroke="#02F1E4" d="M1301.296 328.335l75.661-65.876-36.418 112.303zm-413.463-197.21l9.209-73.823 63.94 32.52zm16.325-84.071l15.174-6.483 2.093 26.351z"/><path stroke="#02F1E4" d="M948.633 152.142L946.226 8.156l91.881 111.257zm425.708 218.333l9.104 1.463-6.488-13.279zm8.058-38.48l25.848 3.659-12.977-10.77z"/><path stroke="#02F1E4" d="M1392.549 339.837l12.872-12.025 2.826 7.842zm7.849 10.143l11.616-12.548 8.79 14.953z"/><path stroke="#03A9F4" d="M1408.247 335.654l5.546 24.782-16.011-17.462z"/><path stroke="#02F1E4" d="M1418.711 362.109l2.093-17.253-13.395 8.679zm-179.68-30.114l24.069-11.503 9.209 22.482zm4.186 21.54l-44.999-39.63 10.151 48.204z"/><path stroke="#02F1E4" d="M1236.729 369.429l2.302-37.434 29.615 24.572z"/><path stroke="#03A9F4" d="M1330.912 335.654l-39.662-20.181 29.93 5.019z"/><path stroke="#02F1E4" d="M1318.354 297.593l-13.918-29.279-3.14 9.829zm14.86-18.927l7.325 18.927 25.116-10.039z"/><path stroke="#03A9F4" d="M1376.957 312.65l23.441 4.183-5.128 8.051zm-211.598-107.807l67.393-56.988 39.557 111.467z"/><path stroke="#02F1E4" d="M747.186 194.596l43.847-45.486 19.36 50.61z"/><path stroke="#02F1E4" d="M778.371 225.861l5.756-68.595 57.765 3.974zm144.414-51.76l26.895-12.025-1.884 21.854z"/><path stroke="#02F1E4" d="M933.878 154.861l13.918 29.069-23.441-18.194zm-23.337 0l13.814 10.875-1.57-11.711z"/><path stroke="#03A9F4" d="M901.228 147.855l-13.709-8.574-16.535 20.076z"/><path stroke="#02F1E4" d="M873.81 130.707l-19.883-6.693-14.965 7.634z"/><path stroke="#02F1E4" d="M836.137 120.773l12.348 13.593 2.721-14.953zm32.964-28.965l12.662 14.326 12.767-12.966z"/><path stroke="#03A9F4" d="M903.111 105.402l-23.022 12.234 12.034 10.038zm13.5 22.272l-15.383 20.181 21.557-4.078z"/><path stroke="#02F1E4" d="M928.017 201.706l12.768.628-18 17.044zm52.534-6.274l-15.697 20.181 18.104.837z"/><path stroke="#03A9F4" d="M999.597 187.59l21.976 23.423 4.186-34.611zM972.284 66.922l24.801-31.893 9.104 47.368z"/><path stroke="#02F1E4" d="M1021.573 74.555l4.186-17.253 26.58 6.274z"/><path stroke="#03A9F4" d="M1036.956 94.213l7.953-21.017 29.825 10.456zm-39.871 11.189L957.528 75.81l-18.313 19.344zm272.294 210.908l-20.406-14.639-5.756 51.864zm-13.081 39.212s7.43-23.946 9.418-23.841c1.989.104 18.314 11.293 18.314 11.293l-27.732 12.548z"/><path stroke="#02F1E4" d="M1262.472 379.467l-13.499-20.808-9.942 35.238zm-6.802-71.418l-4.918-41.408 51.8 14.639z"/><path stroke="#02F1E4" d="M1292.925 308.99l-13.081-61.693 34.533 6.065zm31.08 19.345l-37.359-10.457 14.65-7.319z"/><path stroke="#03A9F4" d="M1372.98 303.03l-20.092-7.529 14.86-17.358z"/><path stroke="#02F1E4" d="M1383.445 310.559l2.093-20.913 9.732 12.025zm-103.601 49.877l11.406-3.555-5.651 7.529z"/><path stroke="#02F1E4" d="M1291.25 367.338l-3.348-8.679 9.209 3.45z"/><path stroke="#02F1E4" d="M1299.831 369.429l-2.72-7.32 7.325 5.229zm4.605 6.797l6.069-6.797-.837 6.797z"/><path stroke="#03A9F4" d="M1309.668 376.226l-9.837-3.346v-3.451l7.64 3.451z"/><path stroke="#02F1E4" d="M1307.471 380.931l6.906-6.169 3.977 6.169z"/><path stroke="#02F1E4" d="M1319.819 372.88l-5.442 8.051h3.977zm7.849 3.346l-3.663 3.032-4.186-6.378zm-47.824-15.79l-21.662 2.614v-10.665z"/><path stroke="#02F1E4" d="M1276.6 343.601l-7.221 18.09 18.523-3.032z"/></g></svg>